<?xml version="1.0" encoding="utf-8"?>
<!-- Generator: Adobe Illustrator 22.0.1, SVG Export Plug-In . SVG Version: 6.00 Build 0)  -->
<svg version="1.1" id="Layer_1" xmlns="http://www.w3.org/2000/svg" xmlns:xlink="http://www.w3.org/1999/xlink" x="0px" y="0px"
	 viewBox="0 0 792 612" style="enable-background:new 0 0 792 612;" xml:space="preserve">
<style type="text/css">
	.st0{fill:url(#SVGID_1_);}
	.st1{fill:#FFFFFF;}
	.st2{fill:url(#SVGID_2_);}
	.st3{fill:#0182AC;}
</style>
<g>
	<g>
		<g>
			<path d="M105.3,49.6l-0.8,2.6h-1.7l2.9-9.1h2.1l3,9.1H109l-0.8-2.6H105.3z M107.9,48.3l-0.7-2.2c-0.2-0.6-0.3-1.2-0.5-1.7h0
				c-0.1,0.5-0.3,1.2-0.4,1.7l-0.7,2.2H107.9z"/>
			<path d="M111.7,50.6c0.4,0.2,1.1,0.5,1.7,0.5c0.7,0,1.1-0.3,1.1-0.7c0-0.4-0.3-0.7-1.1-1c-1.3-0.4-1.8-1.1-1.8-1.9
				c0-1.2,1-2.1,2.5-2.1c0.7,0,1.4,0.2,1.8,0.4l-0.3,1.2c-0.3-0.2-0.8-0.4-1.4-0.4c-0.6,0-0.9,0.3-0.9,0.7c0,0.4,0.3,0.6,1.1,0.9
				c1.2,0.4,1.7,1,1.8,2c0,1.2-0.9,2.1-2.7,2.1c-0.8,0-1.5-0.2-2-0.5L111.7,50.6z"/>
			<path d="M117.1,50.6c0.4,0.2,1.1,0.5,1.7,0.5c0.7,0,1.1-0.3,1.1-0.7c0-0.4-0.3-0.7-1.1-1c-1.3-0.4-1.8-1.1-1.8-1.9
				c0-1.2,1-2.1,2.5-2.1c0.7,0,1.4,0.2,1.8,0.4l-0.3,1.2c-0.3-0.2-0.8-0.4-1.4-0.4c-0.6,0-0.9,0.3-0.9,0.7c0,0.4,0.3,0.6,1.1,0.9
				c1.2,0.4,1.7,1,1.8,2c0,1.2-0.9,2.1-2.7,2.1c-0.8,0-1.5-0.2-2-0.5L117.1,50.6z"/>
			<path d="M125.5,52.3c-1.8,0-3.3-1.3-3.3-3.4c0-2.2,1.4-3.5,3.4-3.5c2,0,3.3,1.4,3.3,3.4C128.9,51.2,127.2,52.3,125.5,52.3
				L125.5,52.3z M125.5,51.1c0.9,0,1.6-0.9,1.6-2.3c0-1-0.5-2.2-1.6-2.2c-1.2,0-1.6,1.1-1.6,2.2C123.9,50.1,124.5,51.1,125.5,51.1
				L125.5,51.1z"/>
			<path d="M134.9,52c-0.4,0.2-1,0.3-1.9,0.3c-2.1,0-3.4-1.3-3.4-3.4c0-2,1.3-3.5,3.7-3.5c0.6,0,1.2,0.1,1.6,0.3l-0.3,1.3
				c-0.3-0.1-0.7-0.3-1.3-0.3c-1.3,0-2,0.9-2,2.1c0,1.4,0.9,2.1,2,2.1c0.6,0,1-0.1,1.3-0.3L134.9,52z"/>
			<path d="M136.7,44.6c-0.6,0-0.9-0.4-0.9-0.9c0-0.5,0.4-0.9,0.9-0.9c0.6,0,0.9,0.4,0.9,0.9C137.6,44.2,137.3,44.6,136.7,44.6
				L136.7,44.6z M135.9,52.2v-6.6h1.7v6.6H135.9z"/>
			<path d="M144.2,50.6c0,0.6,0,1.2,0.1,1.6h-1.5l-0.1-0.7h0c-0.4,0.5-1.1,0.9-1.9,0.9c-1.3,0-2.1-1-2.1-2c0-1.6,1.5-2.5,3.9-2.5
				v-0.1c0-0.4-0.2-1.1-1.3-1.1c-0.6,0-1.3,0.2-1.8,0.5l-0.3-1.1c0.5-0.3,1.3-0.6,2.4-0.6c2.1,0,2.7,1.3,2.7,2.8V50.6z M142.6,48.9
				c-1.2,0-2.3,0.2-2.3,1.2c0,0.6,0.4,0.9,0.9,0.9c0.7,0,1.1-0.4,1.3-0.9c0-0.1,0-0.2,0-0.4V48.9z"/>
			<path d="M147.6,43.9v1.7h1.6v1.2h-1.6v2.9c0,0.8,0.2,1.2,0.8,1.2c0.3,0,0.5,0,0.6-0.1l0,1.3c-0.2,0.1-0.7,0.2-1.2,0.2
				c-0.6,0-1.1-0.2-1.4-0.5c-0.4-0.4-0.5-1-0.5-1.8v-3.1H145v-1.2h0.9v-1.2L147.6,43.9z"/>
			<path d="M151.1,44.6c-0.6,0-0.9-0.4-0.9-0.9c0-0.5,0.4-0.9,0.9-0.9c0.6,0,0.9,0.4,0.9,0.9C152,44.2,151.6,44.6,151.1,44.6
				L151.1,44.6z M150.2,52.2v-6.6h1.7v6.6H150.2z"/>
			<path d="M156.4,52.3c-1.8,0-3.3-1.3-3.3-3.4c0-2.2,1.4-3.5,3.4-3.5c2,0,3.3,1.4,3.3,3.4C159.7,51.2,158,52.3,156.4,52.3
				L156.4,52.3z M156.4,51.1c0.9,0,1.6-0.9,1.6-2.3c0-1-0.5-2.2-1.6-2.2c-1.2,0-1.6,1.1-1.6,2.2C154.8,50.1,155.4,51.1,156.4,51.1
				L156.4,51.1z"/>
			<path d="M160.9,47.5c0-0.8,0-1.4-0.1-2h1.4l0.1,1h0c0.3-0.5,1-1.1,2.1-1.1c1.1,0,2.3,0.7,2.3,2.8v3.9h-1.7v-3.7
				c0-0.9-0.4-1.7-1.3-1.7c-0.7,0-1.1,0.5-1.3,1c-0.1,0.1-0.1,0.3-0.1,0.5v3.9h-1.7V47.5z"/>
			<path d="M171.2,52.2v-5.3h-0.9v-1.2h0.9v-0.3c0-0.9,0.2-1.7,0.8-2.2c0.5-0.5,1.1-0.6,1.7-0.6c0.4,0,0.8,0.1,1.1,0.2l-0.1,1.3
				c-0.2-0.1-0.4-0.1-0.7-0.1c-0.8,0-1.1,0.7-1.1,1.5v0.3h1.4v1.2h-1.4v5.3H171.2z"/>
			<path d="M177.8,52.3c-1.8,0-3.3-1.3-3.3-3.4c0-2.2,1.4-3.5,3.4-3.5c2,0,3.3,1.4,3.3,3.4C181.2,51.2,179.5,52.3,177.8,52.3
				L177.8,52.3z M177.9,51.1c0.9,0,1.6-0.9,1.6-2.3c0-1-0.5-2.2-1.6-2.2c-1.2,0-1.6,1.1-1.6,2.2C176.3,50.1,176.9,51.1,177.9,51.1
				L177.9,51.1z"/>
			<path d="M182.4,47.7c0-0.9,0-1.5-0.1-2.1h1.4l0.1,1.2h0c0.3-0.9,1.1-1.4,1.8-1.4c0.2,0,0.3,0,0.4,0V47c-0.1,0-0.3,0-0.5,0
				c-0.8,0-1.3,0.5-1.5,1.3c0,0.1,0,0.3,0,0.5v3.4h-1.7V47.7z"/>
			<path d="M110,66.9c-0.4,0.2-1.3,0.4-2.4,0.4c-2.9,0-4.6-1.8-4.6-4.6c0-3,2.1-4.8,4.9-4.8c1.1,0,1.9,0.2,2.2,0.4l-0.4,1.3
				c-0.4-0.2-1-0.4-1.8-0.4c-1.8,0-3.2,1.2-3.2,3.3c0,2,1.2,3.3,3.2,3.3c0.7,0,1.4-0.1,1.8-0.3L110,66.9z"/>
			<path d="M113.8,67.3c-1.8,0-3.3-1.3-3.3-3.4c0-2.2,1.4-3.5,3.4-3.5c2,0,3.3,1.4,3.3,3.4C117.2,66.2,115.5,67.3,113.8,67.3
				L113.8,67.3z M113.9,66.1c0.9,0,1.6-0.9,1.6-2.3c0-1-0.5-2.2-1.6-2.2c-1.2,0-1.6,1.1-1.6,2.2C112.2,65.1,112.9,66.1,113.9,66.1
				L113.9,66.1z"/>
			<path d="M118.4,62.5c0-0.8,0-1.4-0.1-2h1.4l0.1,1h0c0.3-0.5,0.9-1.1,2-1.1c0.9,0,1.5,0.5,1.8,1.2h0c0.2-0.4,0.5-0.6,0.8-0.8
				c0.4-0.3,0.8-0.4,1.3-0.4c1.1,0,2.2,0.7,2.2,2.8v3.9h-1.6v-3.6c0-1.1-0.4-1.7-1.2-1.7c-0.6,0-1,0.4-1.2,0.9
				c-0.1,0.1-0.1,0.4-0.1,0.6v3.9h-1.6v-3.8c0-0.9-0.4-1.6-1.1-1.6c-0.6,0-1,0.5-1.2,0.9c-0.1,0.2-0.1,0.4-0.1,0.6v3.9h-1.6V62.5z"
				/>
			<path d="M129.6,62.8c0-0.9,0-1.6-0.1-2.2h1.5l0.1,1h0c0.5-0.7,1.3-1.2,2.3-1.2c1.5,0,2.8,1.3,2.8,3.3c0,2.4-1.5,3.5-3,3.5
				c-0.8,0-1.5-0.4-1.8-0.9h0v3.4h-1.7V62.8z M131.3,64.4c0,0.2,0,0.3,0,0.5c0.2,0.7,0.8,1.2,1.5,1.2c1.1,0,1.7-0.9,1.7-2.2
				c0-1.2-0.6-2.1-1.6-2.1c-0.7,0-1.3,0.5-1.5,1.2c0,0.1-0.1,0.3-0.1,0.4V64.4z"/>
			<path d="M143.2,65.2c0,0.8,0,1.4,0.1,2h-1.4l-0.1-1h0c-0.3,0.5-0.9,1.1-2.1,1.1c-1.2,0-2.3-0.7-2.3-2.9v-3.9h1.7v3.6
				c0,1.1,0.4,1.8,1.2,1.8c0.7,0,1.1-0.5,1.3-0.9c0.1-0.1,0.1-0.3,0.1-0.5v-4h1.7V65.2z"/>
			<path d="M146.7,58.9v1.7h1.6v1.2h-1.6v2.9c0,0.8,0.2,1.2,0.8,1.2c0.3,0,0.5,0,0.6-0.1l0,1.3c-0.2,0.1-0.7,0.2-1.2,0.2
				c-0.6,0-1.1-0.2-1.4-0.5c-0.4-0.4-0.5-1-0.5-1.8v-3.1h-0.9v-1.2h0.9v-1.2L146.7,58.9z"/>
			<path d="M150.1,59.6c-0.6,0-0.9-0.4-0.9-0.9c0-0.5,0.4-0.9,0.9-0.9c0.6,0,0.9,0.4,0.9,0.9C151.1,59.2,150.7,59.6,150.1,59.6
				L150.1,59.6z M149.3,67.2v-6.6h1.7v6.6H149.3z"/>
			<path d="M152.6,62.5c0-0.8,0-1.4-0.1-2h1.4l0.1,1h0c0.3-0.5,1-1.1,2.1-1.1c1.1,0,2.3,0.7,2.3,2.8v3.9h-1.7v-3.7
				c0-0.9-0.4-1.7-1.3-1.7c-0.7,0-1.1,0.5-1.3,1c-0.1,0.1-0.1,0.3-0.1,0.5v3.9h-1.7V62.5z"/>
			<path d="M166,66.2c0,1.4-0.3,2.4-1,3c-0.7,0.6-1.6,0.8-2.5,0.8c-0.8,0-1.7-0.2-2.3-0.5l0.4-1.3c0.4,0.2,1.1,0.5,1.9,0.5
				c1.1,0,1.9-0.6,1.9-2v-0.6h0c-0.4,0.6-1,1-1.9,1c-1.6,0-2.8-1.4-2.8-3.2c0-2.2,1.4-3.5,3-3.5c1,0,1.6,0.5,1.9,1h0l0.1-0.9h1.4
				c0,0.4-0.1,1-0.1,1.9V66.2z M164.4,63.2c0-0.2,0-0.3-0.1-0.4c-0.2-0.6-0.6-1.1-1.3-1.1c-0.9,0-1.6,0.8-1.6,2.1c0,1.1,0.6,2,1.6,2
				c0.6,0,1.2-0.4,1.3-1c0.1-0.2,0.1-0.4,0.1-0.6V63.2z"/>
			<path d="M178,63.4c-0.1-1.2-0.1-2.6-0.1-3.8h0c-0.3,1.1-0.7,2.3-1.1,3.5l-1.3,3.9h-1.3l-1.2-3.9c-0.4-1.2-0.7-2.4-0.9-3.5h0
				c0,1.2-0.1,2.6-0.2,3.9l-0.2,3.7H170l0.6-9.1h2.2l1.2,3.7c0.3,1.1,0.6,2.1,0.8,3.2h0c0.2-1,0.6-2.1,0.9-3.2l1.3-3.6h2.2l0.5,9.1
				h-1.6L178,63.4z"/>
			<path d="M186.3,65.6c0,0.6,0,1.2,0.1,1.6h-1.5l-0.1-0.7h0c-0.4,0.5-1.1,0.9-1.9,0.9c-1.3,0-2.1-1-2.1-2c0-1.6,1.5-2.5,3.9-2.5
				v-0.1c0-0.4-0.2-1.1-1.3-1.1c-0.6,0-1.3,0.2-1.8,0.5l-0.3-1.1c0.5-0.3,1.3-0.6,2.4-0.6c2.1,0,2.7,1.3,2.7,2.8V65.6z M184.7,63.9
				c-1.2,0-2.3,0.2-2.3,1.2c0,0.6,0.4,0.9,0.9,0.9c0.7,0,1.1-0.4,1.3-0.9c0-0.1,0-0.2,0-0.4V63.9z"/>
			<path d="M192.7,67c-0.4,0.2-1,0.3-1.9,0.3c-2.1,0-3.4-1.3-3.4-3.4c0-2,1.3-3.5,3.7-3.5c0.6,0,1.2,0.1,1.6,0.3l-0.3,1.3
				c-0.3-0.1-0.7-0.3-1.3-0.3c-1.3,0-2,0.9-2,2.1c0,1.3,0.9,2.1,2,2.1c0.6,0,1-0.1,1.3-0.3L192.7,67z"/>
			<path d="M193.7,57.6h1.7v3.9h0c0.2-0.3,0.5-0.6,0.8-0.7c0.3-0.2,0.7-0.3,1.1-0.3c1.1,0,2.3,0.7,2.3,2.8v3.9H198v-3.7
				c0-0.9-0.4-1.7-1.3-1.7c-0.6,0-1.1,0.4-1.3,0.9c-0.1,0.1-0.1,0.3-0.1,0.5v3.9h-1.7V57.6z"/>
			<path d="M202.1,59.6c-0.6,0-0.9-0.4-0.9-0.9c0-0.5,0.4-0.9,0.9-0.9c0.6,0,0.9,0.4,0.9,0.9C203,59.2,202.7,59.6,202.1,59.6
				L202.1,59.6z M201.3,67.2v-6.6h1.7v6.6H201.3z"/>
			<path d="M204.5,62.5c0-0.8,0-1.4-0.1-2h1.4l0.1,1h0c0.3-0.5,1-1.1,2.1-1.1c1.1,0,2.3,0.7,2.3,2.8v3.9h-1.7v-3.7
				c0-0.9-0.4-1.7-1.3-1.7c-0.7,0-1.1,0.5-1.3,1c-0.1,0.1-0.1,0.3-0.1,0.5v3.9h-1.7V62.5z"/>
			<path d="M213.2,64.3c0,1.2,1,1.7,2,1.7c0.8,0,1.3-0.1,1.8-0.3l0.2,1.1c-0.6,0.2-1.4,0.4-2.3,0.4c-2.1,0-3.4-1.3-3.4-3.3
				c0-1.8,1.1-3.5,3.2-3.5c2.1,0,2.8,1.8,2.8,3.2c0,0.3,0,0.6-0.1,0.7H213.2z M216.1,63.2c0-0.6-0.3-1.6-1.4-1.6
				c-1,0-1.5,0.9-1.5,1.6H216.1z"/>
			<path d="M218.8,62.7c0-0.9,0-1.5-0.1-2.1h1.4l0.1,1.2h0c0.3-0.9,1.1-1.4,1.8-1.4c0.2,0,0.3,0,0.4,0V62c-0.1,0-0.3,0-0.5,0
				c-0.8,0-1.3,0.5-1.5,1.3c0,0.1,0,0.3,0,0.5v3.4h-1.7V62.7z"/>
			<path d="M224.7,60.6l1.2,3.5c0.1,0.4,0.3,0.9,0.4,1.3h0c0.1-0.4,0.2-0.9,0.4-1.3l1-3.5h1.8l-1.6,4.5c-0.9,2.5-1.5,3.6-2.3,4.2
				c-0.7,0.6-1.3,0.8-1.7,0.8l-0.4-1.4c0.3-0.1,0.6-0.2,1-0.5c0.3-0.2,0.7-0.6,0.9-1c0.1-0.1,0.1-0.2,0.1-0.3c0-0.1,0-0.2-0.1-0.3
				l-2.4-6H224.7z"/>
		</g>
		<g>
			
				<linearGradient id="SVGID_1_" gradientUnits="userSpaceOnUse" x1="19.9999" y1="-8.4371" x2="70.912" y2="42.4751" gradientTransform="matrix(0.7071 0.7071 -0.7071 0.7071 39.1066 10.9476)">
				<stop  offset="0" style="stop-color:#73BAD1"/>
				<stop  offset="0.1438" style="stop-color:#6EB7CF"/>
				<stop  offset="0.332" style="stop-color:#5DAFCA"/>
				<stop  offset="0.5447" style="stop-color:#42A2C1"/>
				<stop  offset="0.7741" style="stop-color:#1D90B5"/>
				<stop  offset="0.7865" style="stop-color:#1A8EB4"/>
			</linearGradient>
			<polygon class="st0" points="59.2,91.1 23.2,55.1 59.2,19.1 95.2,55.1 			"/>
			<path class="st1" d="M81.3,55.1c0,12.2-9.9,22.1-22.1,22.1c-12.2,0-22.1-9.9-22.1-22.1c0-12.2,9.9-22.1,22.1-22.1
				C71.4,33.1,81.3,42.9,81.3,55.1z"/>
			<linearGradient id="SVGID_2_" gradientUnits="userSpaceOnUse" x1="59.2143" y1="74.9869" x2="59.2143" y2="33.9021">
				<stop  offset="0" style="stop-color:#80C0D5"/>
				<stop  offset="0.1346" style="stop-color:#7ABED4"/>
				<stop  offset="0.3108" style="stop-color:#6AB6CE"/>
				<stop  offset="0.5101" style="stop-color:#4FA8C5"/>
				<stop  offset="0.7248" style="stop-color:#2996B9"/>
				<stop  offset="0.8" style="stop-color:#1A8EB4"/>
			</linearGradient>
			<path class="st2" d="M79.1,55.1c0,11-8.9,19.9-19.9,19.9c-11,0-19.9-8.9-19.9-19.9c0-11,8.9-19.9,19.9-19.9
				C70.2,35.3,79.1,44.2,79.1,55.1z"/>
			<g>
				<g>
					<path class="st1" d="M47.6,59c-0.2,0.2-0.4,0.3-0.5,0.5c-0.2,0.1-0.4,0.3-0.7,0.4c-0.3,0.1-0.5,0.2-0.8,0.3
						c-0.3,0.1-0.6,0.1-1.1,0.1c-0.8,0-1.5-0.3-2.1-0.9c-0.6-0.6-0.8-1.3-0.8-2.1c0-0.7,0.1-1.3,0.4-1.7c0.3-0.4,0.7-0.8,1.2-1
						c0.5-0.3,1.2-0.4,1.9-0.5c0.7-0.1,1.6-0.2,2.4-0.2v-0.1c0-0.5-0.2-0.9-0.6-1.1c-0.4-0.2-1-0.3-1.7-0.3c-0.3,0-0.8,0.1-1.2,0.2
						c-0.5,0.1-0.9,0.3-1.4,0.5h-0.3v-2.3c0.3-0.1,0.8-0.2,1.4-0.3c0.7-0.1,1.3-0.2,2-0.2c1.6,0,2.8,0.3,3.6,0.8
						c0.8,0.5,1.1,1.4,1.1,2.5V60h-3V59z M47.6,57.5v-2c-0.5,0.1-0.9,0.1-1.2,0.1c-0.3,0-0.6,0.1-0.9,0.2c-0.3,0.1-0.5,0.2-0.6,0.4
						c-0.1,0.2-0.2,0.4-0.2,0.7c0,0.4,0.1,0.8,0.4,0.9c0.2,0.2,0.6,0.2,1.1,0.2c0.3,0,0.5-0.1,0.8-0.2
						C47.2,57.9,47.4,57.7,47.6,57.5z"/>
					<path class="st1" d="M57.2,60.3c-0.8,0-1.5-0.1-2.2-0.3c-0.7-0.2-1.2-0.5-1.7-0.9c-0.5-0.4-0.9-0.9-1.1-1.6
						c-0.3-0.6-0.4-1.4-0.4-2.2c0-0.9,0.1-1.7,0.4-2.3c0.3-0.6,0.7-1.2,1.2-1.6c0.5-0.4,1-0.7,1.7-0.9c0.6-0.2,1.3-0.3,2-0.3
						c0.5,0,1.1,0.1,1.6,0.2c0.5,0.1,1.1,0.3,1.6,0.6v2.6h-0.4c-0.1-0.1-0.3-0.2-0.4-0.4c-0.2-0.1-0.4-0.3-0.6-0.4
						c-0.2-0.1-0.5-0.2-0.7-0.3c-0.3-0.1-0.6-0.1-0.9-0.1c-0.8,0-1.4,0.3-1.8,0.8c-0.4,0.5-0.6,1.2-0.6,2.1c0,1,0.2,1.7,0.7,2.1
						c0.4,0.5,1,0.7,1.8,0.7c0.4,0,0.7,0,1-0.1c0.3-0.1,0.5-0.2,0.7-0.3c0.2-0.1,0.4-0.2,0.5-0.4c0.1-0.1,0.3-0.2,0.4-0.3h0.4v2.5
						c-0.2,0.1-0.4,0.2-0.6,0.3c-0.2,0.1-0.5,0.2-0.7,0.2c-0.3,0.1-0.6,0.1-0.8,0.2C57.9,60.2,57.6,60.3,57.2,60.3z"/>
					<path class="st1" d="M73.3,60v-4.8c0-0.5,0-0.9,0-1.2c0-0.3-0.1-0.6-0.2-0.8c-0.1-0.2-0.2-0.4-0.4-0.4
						c-0.2-0.1-0.4-0.1-0.8-0.1c-0.2,0-0.5,0.1-0.7,0.1c-0.2,0.1-0.5,0.2-0.7,0.4V60h-3v-4.8c0-0.5,0-0.9,0-1.2
						c0-0.3-0.1-0.6-0.2-0.8c-0.1-0.2-0.2-0.4-0.4-0.4c-0.2-0.1-0.4-0.1-0.7-0.1c-0.2,0-0.5,0.1-0.7,0.2c-0.2,0.1-0.5,0.2-0.7,0.4
						V60h-3v-9.6h3v1.1c0.5-0.4,0.9-0.7,1.4-1c0.4-0.2,0.9-0.4,1.5-0.4c0.6,0,1.1,0.1,1.5,0.4c0.4,0.3,0.8,0.7,1,1.2
						c0.6-0.5,1.1-0.9,1.6-1.2c0.5-0.3,1-0.4,1.5-0.4c0.4,0,0.8,0.1,1.2,0.2c0.4,0.1,0.7,0.4,0.9,0.6c0.3,0.3,0.5,0.7,0.6,1.1
						c0.1,0.4,0.2,1,0.2,1.7V60H73.3z"/>
				</g>
			</g>
		</g>
	</g>
	<g>
		<path class="st3" d="M105.1,124.6l-1.3,2.5h-1l4.1-7.9h1.2l1.1,7.9h-1l-0.3-2.5H105.1z M107.8,123.8l-0.3-2.3c0-0.4-0.1-1-0.1-1.5
			h0c-0.2,0.5-0.4,1-0.6,1.4l-1.2,2.3H107.8z"/>
		<path class="st3" d="M116.1,118.8l-1.2,6.6c-0.1,0.6-0.2,1.2-0.2,1.8h-0.9l0.2-1.1h0c-0.5,0.8-1.2,1.3-2.1,1.3
			c-1.1,0-1.7-0.9-1.7-2.1c0-2,1.5-3.9,3.5-3.9c0.4,0,0.8,0.1,1,0.2l0.5-2.7H116.1z M114.5,122.3c-0.2-0.1-0.5-0.2-0.9-0.2
			c-1.4,0-2.4,1.4-2.4,3c0,0.7,0.2,1.4,1.1,1.4c0.8,0,1.7-0.9,1.9-2.1L114.5,122.3z"/>
		<path class="st3" d="M117.5,121.4l0.5,3.3c0.1,0.6,0.2,1.1,0.2,1.4h0c0.1-0.3,0.3-0.7,0.6-1.3l1.7-3.3h1.1l-3.2,5.7h-1l-1-5.7
			H117.5z"/>
		<path class="st3" d="M125.2,127.1c0-0.3,0.1-0.9,0.1-1.5h0c-0.6,1.2-1.4,1.6-2.2,1.6c-1,0-1.6-0.8-1.6-1.9c0-2,1.5-4.1,3.9-4.1
			c0.5,0,1.1,0.1,1.5,0.2l-0.6,3c-0.2,1-0.3,2-0.2,2.6H125.2z M125.8,122.1c-0.1,0-0.4-0.1-0.7-0.1c-1.5,0-2.7,1.5-2.7,3.1
			c0,0.6,0.2,1.3,1,1.3c0.8,0,1.8-1.1,2.1-2.6L125.8,122.1z"/>
		<path class="st3" d="M127.5,127.1l0.8-4c0.1-0.6,0.2-1.2,0.3-1.7h0.9l-0.1,1.1h0c0.5-0.8,1.3-1.2,2.1-1.2c0.7,0,1.4,0.4,1.4,1.6
			c0,0.2,0,0.6-0.1,0.9l-0.6,3.3h-1l0.6-3.3c0-0.2,0.1-0.5,0.1-0.7c0-0.6-0.2-1-0.9-1c-0.7,0-1.7,0.8-1.9,2.3l-0.5,2.8H127.5z"/>
		<path class="st3" d="M137.8,126.9c-0.3,0.1-0.9,0.4-1.7,0.4c-1.5,0-2.2-1-2.2-2.2c0-1.9,1.4-3.7,3.5-3.7c0.5,0,1,0.2,1.2,0.2
			l-0.3,0.8c-0.2-0.1-0.5-0.2-1-0.2c-1.5,0-2.4,1.5-2.4,2.8c0,0.9,0.5,1.5,1.4,1.5c0.6,0,1-0.2,1.3-0.3L137.8,126.9z"/>
		<path class="st3" d="M138.8,127.1l1.1-5.7h1l-1.1,5.7H138.8z M140.7,120.4c-0.3,0-0.6-0.3-0.6-0.6c0-0.4,0.3-0.7,0.6-0.7
			c0.4,0,0.6,0.3,0.6,0.6C141.3,120.2,141,120.4,140.7,120.4L140.7,120.4z"/>
		<path class="st3" d="M141.5,127.1l0.8-4c0.1-0.6,0.2-1.2,0.3-1.7h0.9l-0.1,1.1h0c0.5-0.8,1.3-1.2,2.1-1.2c0.7,0,1.5,0.4,1.5,1.6
			c0,0.2,0,0.6-0.1,0.9l-0.6,3.3h-1l0.6-3.3c0-0.2,0.1-0.5,0.1-0.7c0-0.6-0.2-1-0.9-1c-0.7,0-1.7,0.8-1.9,2.3l-0.5,2.8H141.5z"/>
		<path class="st3" d="M147.9,128.4c0.3,0.2,0.9,0.4,1.5,0.4c1,0,1.7-0.5,2.1-2l0.2-0.8h0c-0.5,0.8-1.2,1.2-2,1.2
			c-1.1,0-1.7-1-1.7-2c0-1.9,1.4-3.9,3.6-3.9c0.7,0,1.4,0.2,1.8,0.4l-0.9,4.7c-0.2,1.2-0.6,2-1.2,2.5c-0.6,0.5-1.3,0.6-2,0.6
			c-0.7,0-1.3-0.2-1.7-0.4L147.9,128.4z M152.2,122.3c-0.2-0.1-0.5-0.2-0.9-0.2c-1.4,0-2.4,1.5-2.4,2.9c0,0.6,0.2,1.4,1.1,1.4
			c0.8,0,1.7-1.1,1.9-2.2L152.2,122.3z"/>
		<path class="st3" d="M161.7,126.9c-0.4,0.2-1.2,0.4-2.1,0.4c-2,0-3.2-1.3-3.2-3.3c0-1.5,0.6-2.9,1.7-3.8c0.8-0.7,1.8-1.1,3-1.1
			c0.9,0,1.5,0.2,1.7,0.4l-0.3,0.8c-0.3-0.2-0.9-0.3-1.6-0.3c-0.8,0-1.7,0.3-2.3,0.9c-0.7,0.7-1.2,1.8-1.2,3c0,1.4,0.6,2.6,2.4,2.6
			c0.6,0,1.3-0.1,1.7-0.3L161.7,126.9z"/>
		<path class="st3" d="M168.1,123.7c0,1.8-1.2,3.6-3.2,3.6c-1.4,0-2.2-1.1-2.2-2.3c0-1.9,1.3-3.6,3.2-3.6
			C167.4,121.3,168.1,122.5,168.1,123.7z M163.7,124.9c0,0.9,0.5,1.6,1.3,1.6c1.2,0,2-1.5,2-2.8c0-0.7-0.3-1.6-1.3-1.6
			C164.5,122.1,163.7,123.6,163.7,124.9z"/>
		<path class="st3" d="M168.7,127.1l0.8-4c0.1-0.6,0.2-1.2,0.3-1.7h0.9l-0.2,1.1h0c0.5-0.8,1.2-1.2,2-1.2c0.9,0,1.3,0.6,1.3,1.3
			c0.5-0.8,1.2-1.3,2.1-1.3c0.7,0,1.4,0.4,1.4,1.5c0,0.3,0,0.6-0.1,1l-0.6,3.4h-1l0.6-3.3c0-0.2,0.1-0.5,0.1-0.7c0-0.6-0.2-1-0.9-1
			c-0.7,0-1.5,0.8-1.8,2.1l-0.6,2.9h-0.9l0.6-3.3c0-0.2,0.1-0.5,0.1-0.7c0-0.5-0.1-1-0.8-1c-0.7,0-1.6,0.9-1.8,2.2l-0.5,2.9H168.7z"
			/>
		<path class="st3" d="M177.8,129.5l1.1-6c0.1-0.7,0.2-1.5,0.3-2h0.9l-0.2,1.1h0c0.5-0.7,1.3-1.2,2.1-1.2c1.2,0,1.8,1,1.8,2.1
			c0,2-1.4,3.9-3.3,3.9c-0.6,0-1-0.1-1.2-0.3h0l-0.5,2.5H177.8z M179.4,126.2c0.2,0.2,0.6,0.3,1.1,0.3c1.3,0,2.3-1.6,2.3-3.1
			c0-0.6-0.3-1.3-1.1-1.3c-0.8,0-1.7,0.9-2,2.5L179.4,126.2z"/>
		<path class="st3" d="M190,121.4l-0.8,4c-0.1,0.6-0.2,1.2-0.3,1.7h-0.9l0.2-1.1h0c-0.5,0.7-1.3,1.2-2,1.2c-0.7,0-1.5-0.4-1.5-1.7
			c0-0.3,0-0.6,0.1-1l0.6-3.2h1l-0.6,3.2c-0.1,0.3-0.1,0.6-0.1,0.8c0,0.6,0.2,1,0.9,1c0.7,0,1.6-0.8,1.9-2.1l0.6-2.9H190z"/>
		<path class="st3" d="M193.2,120.1l-0.3,1.4h1.4l-0.2,0.8h-1.4l-0.5,2.8c-0.1,0.3-0.1,0.6-0.1,0.9c0,0.3,0.2,0.6,0.5,0.6
			c0.2,0,0.3,0,0.5,0l0,0.8c-0.2,0.1-0.5,0.1-0.8,0.1c-0.9,0-1.2-0.5-1.2-1.1c0-0.3,0-0.7,0.1-1.1l0.6-2.9H191l0.2-0.8h0.8l0.2-1
			L193.2,120.1z"/>
		<path class="st3" d="M194.3,127.1l1.1-5.7h1l-1.1,5.7H194.3z M196.2,120.4c-0.3,0-0.6-0.3-0.6-0.6c0-0.4,0.3-0.7,0.6-0.7
			s0.6,0.3,0.6,0.6C196.8,120.2,196.6,120.4,196.2,120.4L196.2,120.4z"/>
		<path class="st3" d="M197,127.1l0.8-4c0.1-0.6,0.2-1.2,0.3-1.7h0.9l-0.1,1.1h0c0.5-0.8,1.3-1.2,2.1-1.2c0.7,0,1.5,0.4,1.5,1.6
			c0,0.2,0,0.6-0.1,0.9l-0.6,3.3h-1l0.6-3.3c0-0.2,0.1-0.5,0.1-0.7c0-0.6-0.2-1-0.9-1c-0.7,0-1.7,0.8-1.9,2.3l-0.5,2.8H197z"/>
		<path class="st3" d="M203.4,128.4c0.3,0.2,0.9,0.4,1.5,0.4c1,0,1.7-0.5,2.1-2l0.2-0.8h0c-0.5,0.8-1.2,1.2-2,1.2
			c-1.1,0-1.7-1-1.7-2c0-1.9,1.4-3.9,3.6-3.9c0.7,0,1.4,0.2,1.8,0.4l-0.9,4.7c-0.2,1.2-0.6,2-1.2,2.5c-0.6,0.5-1.3,0.6-2,0.6
			c-0.7,0-1.3-0.2-1.7-0.4L203.4,128.4z M207.8,122.3c-0.2-0.1-0.5-0.2-0.9-0.2c-1.4,0-2.4,1.5-2.4,2.9c0,0.6,0.2,1.4,1.1,1.4
			c0.8,0,1.7-1.1,1.9-2.2L207.8,122.3z"/>
		<path class="st3" d="M215.4,127.1c0-0.3,0.1-0.9,0.1-1.5h0c-0.6,1.2-1.4,1.6-2.2,1.6c-1,0-1.6-0.8-1.6-1.9c0-2,1.5-4.1,3.9-4.1
			c0.5,0,1.1,0.1,1.5,0.2l-0.6,3c-0.2,1-0.3,2-0.2,2.6H215.4z M216.1,122.1c-0.1,0-0.4-0.1-0.7-0.1c-1.5,0-2.7,1.5-2.7,3.1
			c0,0.6,0.2,1.3,1,1.3c0.8,0,1.8-1.1,2.1-2.6L216.1,122.1z"/>
		<path class="st3" d="M217.9,126.1c0.3,0.2,0.8,0.4,1.2,0.4c0.7,0,1.1-0.4,1.1-0.9c0-0.4-0.2-0.7-0.8-1c-0.7-0.4-1-0.9-1-1.5
			c0-1,0.9-1.8,2.1-1.8c0.5,0,1,0.1,1.2,0.3l-0.3,0.7c-0.2-0.1-0.6-0.3-1-0.3c-0.6,0-1,0.4-1,0.9c0,0.4,0.3,0.7,0.8,1
			c0.6,0.4,1.1,0.9,1.1,1.5c0,1.2-1,1.9-2.2,1.9c-0.6,0-1.2-0.2-1.4-0.4L217.9,126.1z"/>
		<path class="st3" d="M228.1,127.1c0-0.3,0.1-0.9,0.1-1.5h0c-0.6,1.2-1.4,1.6-2.2,1.6c-1,0-1.6-0.8-1.6-1.9c0-2,1.5-4.1,3.9-4.1
			c0.5,0,1.1,0.1,1.5,0.2l-0.6,3c-0.2,1-0.3,2-0.2,2.6H228.1z M228.8,122.1c-0.1,0-0.4-0.1-0.7-0.1c-1.5,0-2.7,1.5-2.7,3.1
			c0,0.6,0.2,1.3,1,1.3c0.8,0,1.8-1.1,2.1-2.6L228.8,122.1z"/>
		<path class="st3" d="M232.8,125.9c0.4,0.3,1,0.5,1.7,0.5c0.9,0,1.7-0.5,1.7-1.5c0-0.6-0.3-1-1.2-1.5c-1-0.5-1.6-1.2-1.6-2
			c0-1.4,1.2-2.3,2.7-2.3c0.8,0,1.3,0.2,1.6,0.4l-0.4,0.8c-0.2-0.1-0.7-0.4-1.4-0.4c-1,0-1.6,0.6-1.6,1.3c0,0.6,0.4,1,1.2,1.5
			c1,0.5,1.5,1.1,1.5,2.1c0,1.4-1.1,2.5-2.9,2.5c-0.8,0-1.6-0.3-1.9-0.6L232.8,125.9z"/>
		<path class="st3" d="M242.2,126.9c-0.3,0.1-0.9,0.4-1.7,0.4c-1.5,0-2.2-1-2.2-2.2c0-1.9,1.4-3.7,3.5-3.7c0.5,0,1,0.2,1.2,0.2
			l-0.3,0.8c-0.2-0.1-0.5-0.2-1-0.2c-1.5,0-2.4,1.5-2.4,2.8c0,0.9,0.5,1.5,1.4,1.5c0.6,0,1-0.2,1.3-0.3L242.2,126.9z"/>
		<path class="st3" d="M243.2,127.1l1.1-5.7h1l-1.1,5.7H243.2z M245.1,120.4c-0.3,0-0.6-0.3-0.6-0.6c0-0.4,0.3-0.7,0.6-0.7
			c0.4,0,0.6,0.3,0.6,0.6C245.7,120.2,245.5,120.4,245.1,120.4L245.1,120.4z"/>
		<path class="st3" d="M250.1,126.8c-0.4,0.2-1.1,0.5-1.9,0.5c-1.5,0-2.2-1-2.2-2.3c0-1.7,1.3-3.7,3.1-3.7c1.1,0,1.7,0.6,1.7,1.5
			c0,1.5-1.7,1.9-3.8,1.9c0,0.2,0,0.8,0.1,1.1c0.2,0.5,0.7,0.8,1.3,0.8c0.7,0,1.2-0.2,1.5-0.4L250.1,126.8z M249.8,122.8
			c0-0.5-0.4-0.7-0.9-0.7c-0.9,0-1.6,0.9-1.9,1.8C248.6,123.9,249.8,123.7,249.8,122.8L249.8,122.8z"/>
		<path class="st3" d="M251.3,127.1l0.8-4c0.1-0.6,0.2-1.2,0.3-1.7h0.9l-0.1,1.1h0c0.5-0.8,1.3-1.2,2.1-1.2c0.7,0,1.4,0.4,1.4,1.6
			c0,0.2,0,0.6-0.1,0.9l-0.6,3.3h-1l0.6-3.3c0-0.2,0.1-0.5,0.1-0.7c0-0.6-0.2-1-0.9-1c-0.7,0-1.7,0.8-1.9,2.3l-0.5,2.8H251.3z"/>
		<path class="st3" d="M261.5,126.9c-0.3,0.1-0.9,0.4-1.7,0.4c-1.5,0-2.2-1-2.2-2.2c0-1.9,1.4-3.7,3.5-3.7c0.5,0,1,0.2,1.2,0.2
			l-0.3,0.8c-0.2-0.1-0.5-0.2-1-0.2c-1.5,0-2.4,1.5-2.4,2.8c0,0.9,0.5,1.5,1.4,1.5c0.6,0,1-0.2,1.3-0.3L261.5,126.9z"/>
		<path class="st3" d="M266.6,126.8c-0.4,0.2-1.1,0.5-1.9,0.5c-1.5,0-2.2-1-2.2-2.3c0-1.7,1.3-3.7,3.1-3.7c1.1,0,1.7,0.6,1.7,1.5
			c0,1.5-1.7,1.9-3.8,1.9c0,0.2,0,0.8,0.1,1.1c0.2,0.5,0.7,0.8,1.3,0.8c0.7,0,1.2-0.2,1.5-0.4L266.6,126.8z M266.4,122.8
			c0-0.5-0.4-0.7-0.9-0.7c-0.9,0-1.6,0.9-1.9,1.8C265.2,123.9,266.4,123.7,266.4,122.8L266.4,122.8z"/>
		<path class="st3" d="M274.7,127.1c-0.2-0.2-0.4-0.4-0.5-0.7c-0.7,0.6-1.4,0.9-2.2,0.9c-1.4,0-2.2-0.9-2.2-2c0-1.2,1-2.1,2-2.6v0
			c-0.3-0.5-0.4-1-0.4-1.4c0-1.2,0.9-2.2,2.1-2.2c1.1,0,1.6,0.7,1.6,1.6c0,0.9-0.7,1.7-2,2.3v0c0.4,0.7,1,1.6,1.4,2.2
			c0.5-0.6,0.9-1.4,1.2-2.4h0.9c-0.4,1.3-0.9,2.3-1.7,3c0.3,0.4,0.6,0.8,1,1.3H274.7z M272.2,126.5c0.6,0,1.2-0.3,1.6-0.7
			c-0.4-0.6-1.1-1.5-1.6-2.5c-0.5,0.3-1.3,0.9-1.3,1.9C270.8,125.9,271.3,126.5,272.2,126.5L272.2,126.5z M273.3,119.7
			c-0.6,0-1.1,0.6-1.1,1.4c0,0.4,0.1,0.8,0.4,1.3c1-0.5,1.5-1,1.5-1.7C274.1,120.2,273.9,119.7,273.3,119.7L273.3,119.7z"/>
		<path class="st3" d="M280.6,119.3c0.4-0.1,1.1-0.2,1.7-0.2c0.8,0,1.5,0.2,1.9,0.6c0.4,0.4,0.6,0.8,0.6,1.4c0,0.9-0.4,1.6-1,2.1
			c-0.6,0.5-1.5,0.8-2.4,0.8c-0.3,0-0.6,0-0.8-0.1l-0.6,3.2h-1L280.6,119.3z M280.8,123.1c0.3,0.1,0.5,0.1,0.8,0.1
			c1.3,0,2.2-0.8,2.2-2c0-0.9-0.7-1.3-1.6-1.3c-0.4,0-0.7,0-0.9,0.1L280.8,123.1z"/>
		<path class="st3" d="M284.9,127.1l0.7-3.7c0.1-0.7,0.2-1.5,0.3-2h0.9c0,0.4-0.1,0.8-0.2,1.2h0c0.4-0.8,1-1.4,1.7-1.4
			c0.1,0,0.2,0,0.3,0l-0.2,1c-0.1,0-0.2,0-0.3,0c-0.8,0-1.6,1-1.9,2.4l-0.5,2.5H284.9z"/>
		<path class="st3" d="M294,123.7c0,1.8-1.2,3.6-3.2,3.6c-1.4,0-2.2-1.1-2.2-2.3c0-1.9,1.3-3.6,3.2-3.6
			C293.3,121.3,294,122.5,294,123.7z M289.6,124.9c0,0.9,0.5,1.6,1.3,1.6c1.2,0,2-1.5,2-2.8c0-0.7-0.3-1.6-1.3-1.6
			C290.5,122.1,289.6,123.6,289.6,124.9z"/>
		<path class="st3" d="M294.8,127.1l0.9-4.9H295l0.1-0.8h0.8l0.1-0.3c0.1-0.8,0.4-1.5,0.9-2c0.4-0.3,0.9-0.5,1.4-0.5
			c0.4,0,0.6,0.1,0.8,0.2l-0.2,0.8c-0.2-0.1-0.4-0.1-0.6-0.1c-0.8,0-1.2,0.8-1.3,1.7l0,0.3h1.3l-0.2,0.8h-1.3l-0.9,4.9H294.8z"/>
		<path class="st3" d="M302.1,126.8c-0.4,0.2-1.1,0.5-1.9,0.5c-1.5,0-2.2-1-2.2-2.3c0-1.7,1.3-3.7,3.1-3.7c1.1,0,1.7,0.6,1.7,1.5
			c0,1.5-1.7,1.9-3.8,1.9c0,0.2,0,0.8,0.1,1.1c0.2,0.5,0.7,0.8,1.3,0.8c0.7,0,1.2-0.2,1.5-0.4L302.1,126.8z M301.9,122.8
			c0-0.5-0.4-0.7-0.9-0.7c-0.9,0-1.6,0.9-1.9,1.8C300.7,123.9,301.9,123.7,301.9,122.8L301.9,122.8z"/>
		<path class="st3" d="M303.4,126.1c0.3,0.2,0.8,0.4,1.2,0.4c0.7,0,1.1-0.4,1.1-0.9c0-0.4-0.2-0.7-0.8-1c-0.7-0.4-1-0.9-1-1.5
			c0-1,0.9-1.8,2.1-1.8c0.5,0,1,0.1,1.2,0.3l-0.3,0.7c-0.2-0.1-0.6-0.3-1-0.3c-0.6,0-1,0.4-1,0.9c0,0.4,0.3,0.7,0.8,1
			c0.6,0.4,1.1,0.9,1.1,1.5c0,1.2-1,1.9-2.2,1.9c-0.6,0-1.2-0.2-1.4-0.4L303.4,126.1z"/>
		<path class="st3" d="M307.8,126.1c0.3,0.2,0.8,0.4,1.2,0.4c0.7,0,1.1-0.4,1.1-0.9c0-0.4-0.2-0.7-0.8-1c-0.7-0.4-1-0.9-1-1.5
			c0-1,0.9-1.8,2.1-1.8c0.5,0,1,0.1,1.2,0.3l-0.3,0.7c-0.2-0.1-0.6-0.3-1-0.3c-0.6,0-1,0.4-1,0.9c0,0.4,0.3,0.7,0.8,1
			c0.6,0.4,1.1,0.9,1.1,1.5c0,1.2-1,1.9-2.2,1.9c-0.6,0-1.2-0.2-1.4-0.4L307.8,126.1z"/>
		<path class="st3" d="M312.2,127.1l1.1-5.7h1l-1.1,5.7H312.2z M314,120.4c-0.3,0-0.6-0.3-0.6-0.6c0-0.4,0.3-0.7,0.6-0.7
			c0.4,0,0.6,0.3,0.6,0.6C314.7,120.2,314.4,120.4,314,120.4L314,120.4z"/>
		<path class="st3" d="M320.3,123.7c0,1.8-1.2,3.6-3.2,3.6c-1.4,0-2.2-1.1-2.2-2.3c0-1.9,1.3-3.6,3.2-3.6
			C319.7,121.3,320.3,122.5,320.3,123.7z M316,124.9c0,0.9,0.5,1.6,1.3,1.6c1.2,0,2-1.5,2-2.8c0-0.7-0.3-1.6-1.3-1.6
			C316.8,122.1,315.9,123.6,316,124.9z"/>
		<path class="st3" d="M321,127.1l0.8-4c0.1-0.6,0.2-1.2,0.3-1.7h0.9l-0.1,1.1h0c0.5-0.8,1.3-1.2,2.1-1.2c0.7,0,1.4,0.4,1.4,1.6
			c0,0.2,0,0.6-0.1,0.9l-0.6,3.3h-1l0.6-3.3c0-0.2,0.1-0.5,0.1-0.7c0-0.6-0.2-1-0.9-1c-0.7,0-1.7,0.8-1.9,2.3l-0.5,2.8H321z"/>
	</g>
</g>
</svg>
